<svg xmlns="http://www.w3.org/2000/svg" viewBox="0 0 1200 600"><rect width="100%" height="100%" fill="white"/><text x="600" y="28" text-anchor="middle" font-size="20" font-family="sans-serif">N=21 / C=2：每 step 接受 draft token 分布（7 数据集）</text><text x="140" y="73" text-anchor="middle" font-size="15" font-family="sans-serif">GSM8K</text><rect x="35" y="240.6" width="19" height="4.4" fill="#315f8c"/><text x="44" y="263" text-anchor="middle" font-size="10">0</text><rect x="60" y="235.3" width="19" height="9.7" fill="#315f8c"/><text x="69" y="263" text-anchor="middle" font-size="10">1</text><rect x="85" y="233.2" width="19" height="11.8" fill="#315f8c"/><text x="94" y="263" text-anchor="middle" font-size="10">2</text><rect x="110" y="231.4" width="19" height="13.6" fill="#315f8c"/><text x="119" y="263" text-anchor="middle" font-size="10">3</text><rect x="135" y="233.3" width="19" height="11.7" fill="#315f8c"/><text x="144" y="263" text-anchor="middle" font-size="10">4</text><rect x="160" y="232.5" width="19" height="12.5" fill="#315f8c"/><text x="169" y="263" text-anchor="middle" font-size="10">5</text><rect x="185" y="233.8" width="19" height="11.2" fill="#315f8c"/><text x="194" y="263" text-anchor="middle" font-size="10">6</text><rect x="210" y="85.0" width="19" height="160.0" fill="#315f8c"/><text x="219" y="263" text-anchor="middle" font-size="10">7</text><text x="135" y="283" text-anchor="middle" font-size="10">accepted draft tokens</text><text x="440" y="73" text-anchor="middle" font-size="15" font-family="sans-serif">MATH-500</text><rect x="335" y="241.8" width="19" height="3.2" fill="#315f8c"/><text x="344" y="263" text-anchor="middle" font-size="10">0</text><rect x="360" y="238.0" width="19" height="7.0" fill="#315f8c"/><text x="369" y="263" text-anchor="middle" font-size="10">1</text><rect x="385" y="236.0" width="19" height="9.0" fill="#315f8c"/><text x="394" y="263" text-anchor="middle" font-size="10">2</text><rect x="410" y="234.1" width="19" height="10.9" fill="#315f8c"/><text x="419" y="263" text-anchor="middle" font-size="10">3</text><rect x="435" y="234.4" width="19" height="10.6" fill="#315f8c"/><text x="444" y="263" text-anchor="middle" font-size="10">4</text><rect x="460" y="235.2" width="19" height="9.8" fill="#315f8c"/><text x="469" y="263" text-anchor="middle" font-size="10">5</text><rect x="485" y="234.8" width="19" height="10.2" fill="#315f8c"/><text x="494" y="263" text-anchor="middle" font-size="10">6</text><rect x="510" y="85.0" width="19" height="160.0" fill="#315f8c"/><text x="519" y="263" text-anchor="middle" font-size="10">7</text><text x="435" y="283" text-anchor="middle" font-size="10">accepted draft tokens</text><text x="740" y="73" text-anchor="middle" font-size="15" font-family="sans-serif">HumanEval</text><rect x="635" y="243.2" width="19" height="1.8" fill="#315f8c"/><text x="644" y="263" text-anchor="middle" font-size="10">0</text><rect x="660" y="240.5" width="19" height="4.5" fill="#315f8c"/><text x="669" y="263" text-anchor="middle" font-size="10">1</text><rect x="685" y="239.7" width="19" height="5.3" fill="#315f8c"/><text x="694" y="263" text-anchor="middle" font-size="10">2</text><rect x="710" y="239.7" width="19" height="5.3" fill="#315f8c"/><text x="719" y="263" text-anchor="middle" font-size="10">3</text><rect x="735" y="239.1" width="19" height="5.9" fill="#315f8c"/><text x="744" y="263" text-anchor="middle" font-size="10">4</text><rect x="760" y="239.9" width="19" height="5.1" fill="#315f8c"/><text x="769" y="263" text-anchor="middle" font-size="10">5</text><rect x="785" y="240.0" width="19" height="5.0" fill="#315f8c"/><text x="794" y="263" text-anchor="middle" font-size="10">6</text><rect x="810" y="85.0" width="19" height="160.0" fill="#315f8c"/><text x="819" y="263" text-anchor="middle" font-size="10">7</text><text x="735" y="283" text-anchor="middle" font-size="10">accepted draft tokens</text><text x="1040" y="73" text-anchor="middle" font-size="15" font-family="sans-serif">MBPP</text><rect x="935" y="241.6" width="19" height="3.4" fill="#315f8c"/><text x="944" y="263" text-anchor="middle" font-size="10">0</text><rect x="960" y="236.1" width="19" height="8.9" fill="#315f8c"/><text x="969" y="263" text-anchor="middle" font-size="10">1</text><rect x="985" y="234.6" width="19" height="10.4" fill="#315f8c"/><text x="994" y="263" text-anchor="middle" font-size="10">2</text><rect x="1010" y="231.4" width="19" height="13.6" fill="#315f8c"/><text x="1019" y="263" text-anchor="middle" font-size="10">3</text><rect x="1035" y="232.8" width="19" height="12.2" fill="#315f8c"/><text x="1044" y="263" text-anchor="middle" font-size="10">4</text><rect x="1060" y="233.4" width="19" height="11.6" fill="#315f8c"/><text x="1069" y="263" text-anchor="middle" font-size="10">5</text><rect x="1085" y="232.2" width="19" height="12.8" fill="#315f8c"/><text x="1094" y="263" text-anchor="middle" font-size="10">6</text><rect x="1110" y="85.0" width="19" height="160.0" fill="#315f8c"/><text x="1119" y="263" text-anchor="middle" font-size="10">7</text><text x="1035" y="283" text-anchor="middle" font-size="10">accepted draft tokens</text><text x="140" y="353" text-anchor="middle" font-size="15" font-family="sans-serif">LiveCodeBench</text><rect x="35" y="505.6" width="19" height="19.4" fill="#315f8c"/><text x="44" y="543" text-anchor="middle" font-size="10">0</text><rect x="60" y="492.2" width="19" height="32.8" fill="#315f8c"/><text x="69" y="543" text-anchor="middle" font-size="10">1</text><rect x="85" y="486.7" width="19" height="38.3" fill="#315f8c"/><text x="94" y="543" text-anchor="middle" font-size="10">2</text><rect x="110" y="488.3" width="19" height="36.7" fill="#315f8c"/><text x="119" y="543" text-anchor="middle" font-size="10">3</text><rect x="135" y="489.9" width="19" height="35.1" fill="#315f8c"/><text x="144" y="543" text-anchor="middle" font-size="10">4</text><rect x="160" y="494.3" width="19" height="30.7" fill="#315f8c"/><text x="169" y="543" text-anchor="middle" font-size="10">5</text><rect x="185" y="498.1" width="19" height="26.9" fill="#315f8c"/><text x="194" y="543" text-anchor="middle" font-size="10">6</text><rect x="210" y="365.0" width="19" height="160.0" fill="#315f8c"/><text x="219" y="543" text-anchor="middle" font-size="10">7</text><text x="135" y="563" text-anchor="middle" font-size="10">accepted draft tokens</text><text x="440" y="353" text-anchor="middle" font-size="15" font-family="sans-serif">AIME25</text><rect x="335" y="519.7" width="19" height="5.3" fill="#315f8c"/><text x="344" y="543" text-anchor="middle" font-size="10">0</text><rect x="360" y="514.6" width="19" height="10.4" fill="#315f8c"/><text x="369" y="543" text-anchor="middle" font-size="10">1</text><rect x="385" y="511.9" width="19" height="13.1" fill="#315f8c"/><text x="394" y="543" text-anchor="middle" font-size="10">2</text><rect x="410" y="510.5" width="19" height="14.5" fill="#315f8c"/><text x="419" y="543" text-anchor="middle" font-size="10">3</text><rect x="435" y="509.8" width="19" height="15.2" fill="#315f8c"/><text x="444" y="543" text-anchor="middle" font-size="10">4</text><rect x="460" y="511.1" width="19" height="13.9" fill="#315f8c"/><text x="469" y="543" text-anchor="middle" font-size="10">5</text><rect x="485" y="513.2" width="19" height="11.8" fill="#315f8c"/><text x="494" y="543" text-anchor="middle" font-size="10">6</text><rect x="510" y="365.0" width="19" height="160.0" fill="#315f8c"/><text x="519" y="543" text-anchor="middle" font-size="10">7</text><text x="435" y="563" text-anchor="middle" font-size="10">accepted draft tokens</text><text x="740" y="353" text-anchor="middle" font-size="15" font-family="sans-serif">MT-Bench</text><rect x="635" y="463.8" width="19" height="61.2" fill="#315f8c"/><text x="644" y="543" text-anchor="middle" font-size="10">0</text><rect x="660" y="431.1" width="19" height="93.9" fill="#315f8c"/><text x="669" y="543" text-anchor="middle" font-size="10">1</text><rect x="685" y="438.7" width="19" height="86.3" fill="#315f8c"/><text x="694" y="543" text-anchor="middle" font-size="10">2</text><rect x="710" y="454.3" width="19" height="70.7" fill="#315f8c"/><text x="719" y="543" text-anchor="middle" font-size="10">3</text><rect x="735" y="470.4" width="19" height="54.6" fill="#315f8c"/><text x="744" y="543" text-anchor="middle" font-size="10">4</text><rect x="760" y="483.9" width="19" height="41.1" fill="#315f8c"/><text x="769" y="543" text-anchor="middle" font-size="10">5</text><rect x="785" y="494.8" width="19" height="30.2" fill="#315f8c"/><text x="794" y="543" text-anchor="middle" font-size="10">6</text><rect x="810" y="365.0" width="19" height="160.0" fill="#315f8c"/><text x="819" y="543" text-anchor="middle" font-size="10">7</text><text x="735" y="563" text-anchor="middle" font-size="10">accepted draft tokens</text></svg>